# Alias OBJ Model File
# Exported from SketchUp, (c) 2000-2012 Trimble Navigation Limited
# File units = meters

mtllib Scene.mtl

g Mesh1 Model

usemtl FrontColor
v 35.8665 2.88317 -34.5465
vt 1360.1 1410.09
vn 0.175367 -0.984503 -2.17439e-017
v -27.6339 -8.42799 -7.79159
vt 306.756 -1129.28
v -27.6339 -8.42799 -34.5465
vt 1360.1 -1129.28
f 1/1/1 2/2/1 3/3/1

v -9.60834 -5.21714 -7.79159
vt 306.756 -408.439
f 2/2/1 1/1/1 4/4/1

v -9.60834 -5.21714 6.65641
vt -262.063 -408.439
f 4/4/1 1/1/1 5/5/1

v 35.8665 2.88317 29.9535
vt -1179.27 1410.09
f 6/6/1 5/5/1 1/1/1

v -27.6339 -8.42799 29.9535
vt -1179.27 -1129.28
f 7/7/1 5/5/1 6/6/1

v -27.6339 -8.42799 6.65641
vt -262.063 -1129.28
f 5/5/1 7/7/1 8/8/1

vt 262.063 135.444
vn -0.91496 -0.403545 -9.1847e-019
vt 1179.27 135.444
v -31.8506 1.13243 6.65641
vt 262.063 546.822
f 8/9/2 7/10/2 9/11/2

v -47.9974 37.7423 -34.5465
vt -1360.1 2122.12
f 7/10/2 10/12/2 9/11/2

v -47.9974 37.7423 29.9535
vt 1179.27 2122.12
f 10/12/2 7/10/2 11/13/2

vt 1412.07 113.51
vn 0 0 1
vt -1889.66 1485.92
vt -1087.95 -331.811
f 6/14/3 11/15/3 7/16/3

v 56.8755 37.7423 29.9535
vt 2239.19 1485.92
f 11/15/3 6/14/3 12/17/3

vt 1360.1 826.105
vn 0.856478 -0.516184 -0
vt -1179.27 2428.49
vt -1179.27 826.105
f 1/18/4 12/19/4 6/20/4

v 56.8755 37.7423 -34.5465
vt 1360.1 2428.49
f 12/19/4 1/18/4 13/21/4

vt -1412.07 113.51
vn 0 0 -1
vt 1889.66 1485.92
vt -2239.19 1485.92
f 1/22/5 10/23/5 13/24/5

vt 1087.95 -331.811
f 10/23/5 1/22/5 3/25/5

vt -306.756 135.444
vt -1360.1 135.444
f 2/26/2 10/12/2 3/27/2

v -31.8506 1.13243 -7.79159
vt -306.756 546.822
f 14/28/2 10/12/2 2/26/2

f 9/11/2 10/12/2 14/28/2

vt -306.756 -509.451
vn -0.898862 0.438232 -0
v -46.9173 -29.7711 6.65641
vt 262.063 -1863.02
vt 262.063 -509.451
f 14/29/6 15/30/6 9/31/6

v -46.9173 -29.7711 -7.79159
vt -306.756 -1863.02
f 15/30/6 14/29/6 16/32/6

vt 1847.14 -1172.09
vt 1253.96 44.5837
f 2/25/5 16/33/5 14/34/5

v -45.6478 -30.7936 -7.79159
vt 1797.16 -1212.34
f 16/33/5 2/25/5 17/35/5

vt 378.281 -205.399
f 4/36/5 17/35/5 2/25/5

v -44.1059 -32.0355 -7.79159
vt 1736.45 -1261.24
f 17/35/5 4/36/5 18/37/5

vt 306.756 -424.717
vn 0.613753 -0.789498 1.42031e-016
v -44.1059 -32.0355 6.65641
vt -262.063 -2145.02
vt 306.756 -2145.02
f 4/38/7 19/39/7 18/40/7

vt -262.063 -424.717
f 19/39/7 4/38/7 5/41/7

vt -378.281 -205.399
v -45.6478 -30.7936 6.65641
vt -1797.16 -1212.34
vt -1736.45 -1261.24
f 5/42/3 20/43/3 19/44/3

f 20/43/3 5/42/3 8/16/3

vt -1847.14 -1172.09
f 8/16/3 15/45/3 20/43/3

vt -1253.96 44.5837
f 15/45/3 8/16/3 9/46/3

v -56.4695 -41.6468 6.65641
vt -262.063 -2761.55
vn 0.613753 -0.789498 1.57839e-016
f 21/47/8 18/40/8 19/39/8

v -56.4695 -41.6468 -7.79159
vt 306.756 -2761.55
f 18/40/8 21/47/8 22/48/8

v -66.5095 -41.6468 6.65641
vt 2618.48 -262.063
vn 5.75228e-016 -1 5.89799e-033
vt 2223.21 306.756
vt 2223.21 -262.063
f 23/49/9 22/50/9 21/51/9

v -66.5095 -41.6468 -7.79159
vt 2618.48 306.756
f 22/50/9 23/49/9 24/52/9

vt 262.063 1335.99
vn -0.534708 -0.845037 1.40613e-016
v -72.3254 -37.9667 -7.79159
vt -306.756 1606.95
vt -306.756 1335.99
f 23/53/10 25/54/10 24/55/10

v -72.5828 -37.8039 6.65641
vt 262.063 1618.94
f 25/54/10 23/53/10 26/56/10

g Mesh2 Model

v -157.947 -125.811 -36.4422
vt -3297.48 -7121.34
vn 0.327448 -0.889977 0.317361
v -114.703 -86.8085 28.3158
vt -3943.38 -3753.96
v -165.43 -105.472 28.3158
vt -5333.29 -5365.33
f 27/57/11 28/58/11 29/59/11

v -107.22 -107.148 -36.4422
vt -1907.58 -5509.97
f 28/58/11 27/57/11 30/60/11

v -180.263 -65.1574 28.3158
vt -7096.96 -2565.25
vt -6512.98 -4152.45
vt -4515.88 -3417.66
f 31/61/3 29/62/3 28/63/3

v -173.269 -84.1647 -36.4422
vt -1434.73 -754.265
vn -0.938493 -0.345298 -0
vt 1114.8 -1648.12
vt 1114.8 43.0968
f 32/64/12 29/65/12 31/66/12

vt -1434.73 -2501.35
f 29/65/12 32/64/12 27/67/12

